<svg width="284" height="76" viewBox="0 0 284 76" fill="none" xmlns="http://www.w3.org/2000/svg">
<path d="M97.402 54H113.189C114.556 54 115.482 53.1621 115.482 51.8613C115.482 50.5604 114.556 49.7225 113.189 49.7225H99.8715V39.8446H112.461C113.784 39.8446 114.666 39.0288 114.666 37.794C114.666 36.5372 113.762 35.7435 112.461 35.7435H99.8715V26.4609H113.189C114.556 26.4609 115.482 25.623 115.482 24.3221C115.482 23.0212 114.556 22.1834 113.189 22.1834H97.402C95.8586 22.1834 94.9325 23.1535 94.9325 24.741V51.4423C94.9325 53.0298 95.8586 54 97.402 54ZM121.435 54H135.37C136.649 54 137.399 53.3165 137.399 52.1038C137.399 50.8911 136.671 50.2076 135.37 50.2076H124.919V50.1194L136.076 35.3466C136.759 34.4205 137.024 33.8473 137.024 33.0976C137.024 31.6644 136.054 30.8045 134.444 30.8045H120.994C119.693 30.8045 118.966 31.5101 118.966 32.7007C118.966 33.9134 119.716 34.5969 120.994 34.5969H131.512V34.6851L119.87 49.9871C119.319 50.6706 119.12 51.1336 119.12 51.8613C119.12 53.1621 120.046 54 121.435 54ZM143.925 54.4189C145.314 54.4189 146.307 53.4708 146.307 51.9053V45.7096L148.423 43.7252L156.118 53.2503C156.758 54.1323 157.287 54.4189 158.169 54.4189C159.448 54.4189 160.396 53.537 160.396 52.3243C160.396 51.729 160.264 51.288 159.756 50.6486L151.885 40.9029L159.051 34.1118C159.668 33.5386 159.867 33.0976 159.867 32.4141C159.867 31.2896 158.963 30.3856 157.794 30.3856C157.089 30.3856 156.581 30.6281 155.986 31.2675L146.351 40.7045H146.307V24.278C146.307 22.7125 145.314 21.7644 143.925 21.7644C142.536 21.7644 141.544 22.7125 141.544 24.278V51.9053C141.544 53.4708 142.536 54.4189 143.925 54.4189ZM170.913 54.3969C173.934 54.3969 176.888 52.7653 178.233 50.1855H178.344V52.1479C178.388 53.559 179.292 54.4189 180.615 54.4189C181.96 54.4189 182.908 53.5149 182.908 52.0156V38.0145C182.908 33.3622 179.314 30.3856 173.691 30.3856C169.524 30.3856 166.018 32.0613 164.806 34.6851C164.519 35.2143 164.387 35.7435 164.387 36.2285C164.387 37.4192 165.247 38.213 166.437 38.213C167.275 38.213 167.892 37.9043 168.378 37.1987C169.701 35.082 171.222 34.2662 173.515 34.2662C176.425 34.2662 178.167 35.8096 178.167 38.3893V40.1753L171.795 40.5501C166.305 40.8588 163.174 43.3504 163.174 47.4074C163.174 51.5746 166.371 54.3969 170.913 54.3969ZM172.214 50.6265C169.678 50.6265 167.981 49.3036 167.981 47.2751C167.981 45.2907 169.59 44.0339 172.435 43.8354L178.167 43.4827V45.3127C178.167 48.3334 175.543 50.6265 172.214 50.6265ZM189.919 54.4189C191.308 54.4189 192.301 53.4708 192.301 51.9053V40.484C192.301 36.89 194.461 34.5087 197.813 34.5087C201.12 34.5087 202.752 36.427 202.752 39.9107V51.9053C202.752 53.4708 203.744 54.4189 205.133 54.4189C206.544 54.4189 207.536 53.4708 207.536 51.9053V38.9847C207.536 33.6709 204.604 30.4076 199.489 30.4076C195.917 30.4076 193.491 31.9951 192.235 34.641H192.124V32.811C192.124 31.3337 191.176 30.3856 189.809 30.3856C188.42 30.3856 187.538 31.3337 187.538 32.7889V51.9053C187.538 53.4708 188.508 54.4189 189.919 54.4189ZM214.592 54.4189C215.981 54.4189 216.951 53.537 216.951 52.0376V50.0532H217.04C218.473 52.7432 221.119 54.3969 224.492 54.3969C230.401 54.3969 234.194 49.7666 234.194 42.4023C234.194 35.06 230.379 30.4297 224.536 30.4297C221.251 30.4297 218.583 32.0613 217.194 34.7513H217.084V24.278C217.084 22.7125 216.091 21.7644 214.702 21.7644C213.313 21.7644 212.321 22.7125 212.321 24.278V52.0376C212.321 53.537 213.225 54.4189 214.592 54.4189ZM223.213 50.3619C219.619 50.3619 217.062 47.231 217.062 42.4023C217.062 37.6176 219.619 34.4426 223.213 34.4426C226.962 34.4426 229.299 37.5294 229.299 42.4023C229.299 47.3192 226.984 50.3619 223.213 50.3619ZM244.689 54.3969C247.71 54.3969 250.664 52.7653 252.009 50.1855H252.119V52.1479C252.164 53.559 253.068 54.4189 254.391 54.4189C255.736 54.4189 256.684 53.5149 256.684 52.0156V38.0145C256.684 33.3622 253.09 30.3856 247.467 30.3856C243.3 30.3856 239.794 32.0613 238.581 34.6851C238.295 35.2143 238.162 35.7435 238.162 36.2285C238.162 37.4192 239.022 38.213 240.213 38.213C241.051 38.213 241.668 37.9043 242.153 37.1987C243.476 35.082 244.998 34.2662 247.291 34.2662C250.201 34.2662 251.943 35.8096 251.943 38.3893V40.1753L245.571 40.5501C240.081 40.8588 236.95 43.3504 236.95 47.4074C236.95 51.5746 240.147 54.3969 244.689 54.3969ZM245.99 50.6265C243.454 50.6265 241.756 49.3036 241.756 47.2751C241.756 45.2907 243.366 44.0339 246.21 43.8354L251.943 43.4827V45.3127C251.943 48.3334 249.319 50.6265 245.99 50.6265ZM263.695 54.4189C265.084 54.4189 266.076 53.4708 266.076 51.9053V40.484C266.076 36.89 268.237 34.5087 271.589 34.5087C274.896 34.5087 276.528 36.427 276.528 39.9107V51.9053C276.528 53.4708 277.52 54.4189 278.909 54.4189C280.32 54.4189 281.312 53.4708 281.312 51.9053V38.9847C281.312 33.6709 278.38 30.4076 273.264 30.4076C269.692 30.4076 267.267 31.9951 266.01 34.641H265.9V32.811C265.9 31.3337 264.952 30.3856 263.585 30.3856C262.196 30.3856 261.314 31.3337 261.314 32.7889V51.9053C261.314 53.4708 262.284 54.4189 263.695 54.4189Z" fill="#1A202C"/>
<rect width="76" height="76" rx="38" fill="#ED8936"/>
<g clip-path="url(#clip0_1_37)">
<path d="M61.3871 40.5819C59.2396 38.4344 55.7452 38.4344 53.5991 40.5805L43.5193 50.6376C43.3053 50.8513 43.1475 51.1145 43.0596 51.4039L40.8644 58.6303C40.6697 59.2711 40.8397 59.9667 41.3069 60.4462C41.6572 60.8051 42.1331 61.0002 42.6215 61.0002C42.7846 61.0002 42.9496 60.9783 43.1113 60.9331L50.5217 58.8806C50.8265 58.796 51.1044 58.6343 51.3285 58.4109L61.3871 48.3713C63.5343 46.2234 63.5343 42.7294 61.3871 40.5819ZM49.0763 55.4709L45.3481 56.5036L46.4393 52.9117L53.2401 46.1256L55.8373 48.7224L49.0763 55.4709ZM58.7917 45.7734L58.436 46.1284L55.8395 43.5319L56.1941 43.178C56.9099 42.4623 58.0745 42.4623 58.7906 43.178C59.5063 43.8941 59.5063 45.0588 58.7917 45.7734ZM37.0215 59.1639C37.0215 60.178 36.1996 60.9998 35.1855 60.9998H23.3438C19.2946 60.9998 16 57.7055 16 53.6561V21.3437C16 17.2943 19.2946 14 23.3438 14H45.9157C49.9652 14 53.2595 17.2943 53.2595 21.3437V35.4804C53.2595 36.4944 52.4376 37.3163 51.4236 37.3163C50.4095 37.3163 49.5876 36.4944 49.5876 35.4804V21.3437C49.5876 19.3192 47.9403 17.6719 45.9157 17.6719H23.3438C21.3192 17.6719 19.6719 19.3192 19.6719 21.3437V53.6561C19.6719 55.6806 21.3192 57.328 23.3438 57.328H35.1855C36.1996 57.328 37.0215 58.1498 37.0215 59.1639ZM45.9258 27.6777C45.9258 28.6917 45.1039 29.5136 44.0898 29.5136H38.6738C37.6598 29.5136 36.8379 28.6917 36.8379 27.6777C36.8379 26.6636 37.6598 25.8418 38.6738 25.8418H44.0898C45.1039 25.8418 45.9258 26.6636 45.9258 27.6777ZM34.8571 23.89L30.572 29.0761C30.0134 29.765 29.1865 30.1931 28.3011 30.2523C28.2309 30.2569 28.1602 30.2595 28.0899 30.2595C27.2731 30.2595 26.4785 29.9443 25.8836 29.3777C25.8667 29.3619 25.8502 29.3454 25.8337 29.3286L23.8644 27.3062C23.1569 26.5797 23.1727 25.4176 23.8988 24.7101C24.6253 24.0026 25.7875 24.018 26.495 24.7445L28.0602 26.3517L32.0261 21.5513C32.6719 20.7696 33.8294 20.6596 34.6107 21.3054C35.3924 21.9512 35.5025 23.1083 34.8571 23.89ZM44.0898 40.8046H38.6738C37.6598 40.8046 36.8379 39.9827 36.8379 38.9687C36.8379 37.9546 37.6598 37.1327 38.6738 37.1327H44.0898C45.1039 37.1327 45.9258 37.9546 45.9258 38.9687C45.9258 39.9827 45.1039 40.8046 44.0898 40.8046ZM34.8571 35.1695L30.572 40.356C30.0134 41.0445 29.1865 41.473 28.3011 41.5318C28.2309 41.5364 28.1602 41.539 28.0899 41.539C27.2727 41.539 26.4785 41.2238 25.8832 40.6572C25.8678 40.6425 25.8524 40.6274 25.8373 40.612L23.868 38.6007C23.1587 37.8764 23.1709 36.7139 23.8952 36.0046C24.6196 35.295 25.7821 35.3072 26.4914 36.0319L28.0591 37.6326L32.0261 32.8308C32.6719 32.0491 33.8294 31.9394 34.6107 32.5849C35.3924 33.2307 35.5025 34.3878 34.8571 35.1695ZM34.8571 46.2769L30.572 51.4634C30.0134 52.1519 29.1865 52.5804 28.3011 52.6392C28.2309 52.6438 28.1602 52.6463 28.0899 52.6463C27.2727 52.6463 26.4785 52.3311 25.8832 51.7646C25.8678 51.7499 25.8524 51.7348 25.8373 51.7194L23.868 49.7081C23.1587 48.9838 23.1709 47.8213 23.8952 47.112C24.6196 46.4024 25.7821 46.4146 26.4914 47.1393L28.0591 48.74L32.0261 43.9382C32.6719 43.1565 33.8294 43.0468 34.6107 43.6922C35.3924 44.338 35.5025 45.4952 34.8571 46.2769Z" fill="white"/>
</g>
<defs>
<clipPath id="clip0_1_37">
<rect width="47" height="47" fill="white" transform="translate(16 14)"/>
</clipPath>
</defs>
</svg>
